<?xml version="1.0" encoding="UTF-8"?><svg id="Ebene_1" xmlns="http://www.w3.org/2000/svg" viewBox="0 0 1091.34 252.57"><defs><style>.cls-1{isolation:isolate;}.cls-2{fill:#fff;}.cls-2,.cls-3{stroke-width:0px;}.cls-3{fill:#ef7d00;}</style></defs><path class="cls-3" d="m1038.35,64.06h-35.72c-5.79,0-10.49,4.7-10.49,10.49s4.7,10.49,10.49,10.49h35.72c5.79,0,10.49-4.7,10.49-10.49s-4.7-10.49-10.49-10.49Z"/><path class="cls-3" d="m1080.85,32.03h-64.42c-5.79,0-10.49,4.7-10.49,10.49s4.7,10.49,10.49,10.49h64.42c5.79,0,10.49-4.7,10.49-10.49s-4.7-10.49-10.49-10.49Z"/><path class="cls-3" d="m951.59,0h75.11c5.79,0,10.49,4.7,10.49,10.49h0c0,5.79-4.7,10.49-10.49,10.49h-75.11c-5.79,0-10.49-4.7-10.49-10.49h0c0-5.79,4.7-10.49,10.49-10.49Z"/><path class="cls-2" d="m37.1,68.45c-.7-2.1-2.1-3.1-4.6-3.6-1.2-.2-2.6-.3-4.3-.3H9.6c-7.7-.1-9.6,1.8-9.6,9.5v1.9c0,7.7,1.9,9.6,9.6,9.6h5.9v54.9c0,7.7,1.9,9.6,9.6,9.6h3.1c7.7,0,9.6-1.9,9.6-9.6v-66.4c0-2.3-.2-4.1-.6-5.4,0-.07-.03-.13-.1-.2Z"/><path class="cls-2" d="m26.7,25.45c-7.4,0-13.3,6.1-13.3,13.4s5.9,13.3,13.3,13.3,13.3-6.1,13.3-13.3-6-13.4-13.3-13.4Z"/><path class="cls-2" d="m90.1,62.45c-22.6,0-40.7,10.6-40.7,37.5v74.7c0,7.7,1.9,9.6,9.6,9.6h3.1c7.7,0,9.6-1.9,9.6-9.6v-32.3c4.4,6,11.6,9.8,23.4,9.8,23.7,0,35.9-14,35.9-38.5v-13.7c0-26.9-15.2-37.5-40.9-37.5Zm.2,68.6c-15.5,0-18.7-5.9-18.7-16.9v-13.7c0-10.9,3.3-16.9,18.7-16.9s18.3,5.9,18.3,16.9v13.7c0,10.9-2.9,16.9-18.3,16.9Z"/><path class="cls-2" d="m253.3,62.45c-26.7,0-41.1,13.5-41.1,38v13.7c0,25.3,13,37.9,41.1,38,26.7,0,40.7-13.5,40.7-38v-13.7c0-25.3-12.6-38-40.7-38h0Zm18.2,51.7c0,10.9-2.9,16.9-18.3,16.9s-18.7-5.9-18.7-16.9v-13.7c0-10.9,3.3-16.9,18.7-16.9s18.3,5.9,18.3,16.9v13.7Z"/><path class="cls-2" d="m343.1,64.55h-1.9c-23.4,0-35.6,10.9-35.6,31.1v44.8c0,7.7,1.9,9.6,9.6,9.6h3.2c7.7,0,9.6-1.9,9.6-9.6v-43c0-7.7,2.1-11.8,13.2-11.8h1.9c7,.5,8.7-.5,8.7-8.2v-1.9c0-7.7-1.9-11-8.7-11h0Z"/><path class="cls-2" d="m197.1,129.85c-1.7.3-6,1-12,1-6.5,0-10.8-2.9-10.8-11.5v-33.8h19.5c7.7,0,9.6-1.9,9.6-9.6v-1.9c0-7.7-1.9-9.6-9.6-9.6h-19.5v-13.3c0-7.2-1.7-8.9-8.9-8.9h-3.8c-7.7,0-9.6,1.9-9.6,9.6v12.7h-5.8c-7.7,0-9.6,1.9-9.6,9.6v3c0,6.8,1.7,8.6,8.6,8.6h6.8v33.7c0,25,14,32.7,33,32.7,6,0,9.8-.5,12-1,7.5-1.5,9.4-4.4,9.4-12.1v-1.9c.1-8-1.8-8.7-9.3-7.3h0Z"/><path class="cls-2" d="m622.89,43.67h1.99c1.56,0,2.83,1.27,2.83,2.83v100.71c0,1.56-1.27,2.83-2.83,2.83h-1.99c-1.56,0-2.83-1.27-2.83-2.83V46.5c0-1.56,1.27-2.83,2.83-2.83Z"/><path class="cls-2" d="m773.25,43.67h1.99c1.56,0,2.83,1.27,2.83,2.83v100.71c0,1.56-1.27,2.83-2.83,2.83h-1.99c-1.56,0-2.83-1.27-2.83-2.83V46.5c0-1.56,1.27-2.83,2.83-2.83Z"/><path class="cls-2" d="m942.05,145.44l-29.72-38.04,28.31-36.23c.94-1.21.73-2.95-.48-3.89l-1.44-1.13c-1.21-.94-2.95-.73-3.89.48l-27.17,34.78-27.17-34.78c-.94-1.21-2.68-1.42-3.89-.48l-1.44,1.13c-1.21.94-1.42,2.68-.48,3.89l28.31,36.23-29.72,38.04c-.94,1.21-.73,2.95.48,3.89l1.44,1.13c1.21.94,2.95.73,3.89-.48l28.59-36.6,28.59,36.6c.94,1.21,2.68,1.42,3.89.48l1.44-1.13c1.21-.94,1.42-2.68.48-3.89h-.02Z"/><path class="cls-2" d="m756.26,42.73c-1.69-.35-3.46-.52-5.27-.47-12.38.32-22.07,10.85-22.07,23.23v1.21h-7.65c-1.57,0-2.83,1.27-2.83,2.83v1.42c0,1.57,1.27,2.83,2.83,2.83h7.65v73.28c0,1.57,1.27,2.83,2.83,2.83h1.98c1.57,0,2.83-1.27,2.83-2.83v-73.28h13.04c1.57,0,2.83-1.27,2.83-2.83v-1.42c0-1.57-1.27-2.83-2.83-2.83h-13.04v-1.53c0-6.42,3.75-12.39,9.72-14.78,2.88-1.16,5.67-1.3,8.23-.74,1.4.3,2.8-.44,3.29-1.79l.51-1.39c.59-1.61-.37-3.39-2.05-3.74h0Z"/><path class="cls-2" d="m679.99,145.47c-.49-1.34-1.9-2.09-3.29-1.79-2.56.56-5.34.42-8.23-.74-5.96-2.39-9.72-8.36-9.72-14.78v-54.37h14.46c1.57,0,2.83-1.27,2.83-2.83v-1.42c0-1.57-1.27-2.83-2.83-2.83h-14.46v-14.53c0-1.57-1.27-2.83-2.83-2.83h-1.98c-1.57,0-2.83,1.27-2.83,2.83v14.53h-6.24c-1.57,0-2.83,1.27-2.83,2.83v1.42c0,1.57,1.27,2.83,2.83,2.83h6.24v54.06c0,12.39,9.69,22.91,22.07,23.23,1.81.05,3.58-.12,5.27-.47,1.68-.35,2.64-2.13,2.05-3.74l-.51-1.39h0Z"/><path class="cls-2" d="m702.1,66.7h-14.39c-1.51,0-2.73,1.22-2.73,2.73v1.63c0,1.51,1.22,2.73,2.73,2.73h9.46v73.43c0,1.57,1.27,2.83,2.83,2.83h1.99c1.57,0,2.83-1.27,2.83-2.83v-77.79c0-1.51-1.22-2.73-2.73-2.73h0Z"/><path class="cls-2" d="m601.06,66.7h-1.99c-1.57,0-2.83,1.27-2.83,2.83v44.39c0,20.28-9.5,31.14-28.22,31.14-19.75-.08-28.56-10.08-28.56-31.14v-44.39c0-1.57-1.27-2.83-2.83-2.83h-1.99c-1.57,0-2.83,1.27-2.83,2.83v44.39c0,25.27,12.18,38.13,36.21,38.23,14.03,0,23.19-5,28.23-14.41v9.48c0,1.57,1.27,2.83,2.83,2.83h1.99c1.57,0,2.83-1.27,2.83-2.83v-77.68c0-1.57-1.27-2.83-2.83-2.83h-.01Z"/><path class="cls-2" d="m700.15,42.25c-2.97,0-5.39,2.41-5.39,5.39s2.41,5.39,5.39,5.39,5.39-2.41,5.39-5.39-2.41-5.39-5.39-5.39Z"/><path class="cls-2" d="m485.94,64.56c-11.82-.02-22.1,6.53-27.41,16.21-5.3-9.66-15.56-16.21-27.35-16.21-10.48,0-18.69,5.17-23.52,13.1v-8.12c0-1.57-1.27-2.83-2.83-2.83h-1.99c-1.57,0-2.83,1.27-2.83,2.83v77.68c0,1.57,1.27,2.83,2.83,2.83h1.99c1.57,0,2.83-1.27,2.83-2.83v-51.66c.1-12.89,10.61-23.91,23.52-23.91s23.53,11.12,23.53,24.09v51.32c0,1.57,1.27,2.83,2.83,2.83h1.98c1.57,0,2.83-1.27,2.83-2.83v-51.32h0c0-14.31,12.84-26.36,27.6-23.73,11.37,2.03,19.46,12.23,19.46,23.78v51.27c0,1.57,1.27,2.83,2.83,2.83h1.98c1.57,0,2.83-1.27,2.83-2.83v-50.69c0-17.3-13.82-31.79-31.13-31.82h.02Z"/><path class="cls-2" d="m830.53,64.55c-23.01,0-36.21,13.93-36.21,38.23v11.15c0,25.27,13.59,38.13,37.62,38.23,15.36,0,27.16-5.98,32.89-17.21.78-1.53.07-3.4-1.54-3.99l-1.87-.68c-1.36-.5-2.85.13-3.51,1.42-4.51,8.78-13.78,13.37-25.95,13.37-19.75-.08-29.98-10.07-29.98-31.13v-2.98h61.6c1.57,0,2.83-1.27,2.83-2.83v-5.33c0-25.37-12.08-38.23-35.89-38.23v-.02Zm28.23,39.3h-56.78v-1.08c0-20.28,9.61-31.14,28.55-31.14s28.23,9.99,28.23,31.14v1.08h0Z"/><g class="cls-1"><g class="cls-1"><path class="cls-3" d="m275.44,250.73h-8.57l31.42-72.22h7.14l31.42,72.22h-8.57l-7.96-18.97h-36.92l-7.96,18.97Zm10.71-25.7h31.31l-15.61-37.94-15.71,37.94Z"/><path class="cls-3" d="m415.28,239.31c-1.22,1.84-2.74,3.57-4.54,5.2-1.8,1.63-3.86,3.04-6.17,4.23-2.31,1.19-4.81,2.12-7.5,2.81-2.69.68-5.53,1.02-8.52,1.02-5.37,0-10.35-.95-14.94-2.86-4.59-1.9-8.57-4.54-11.93-7.91-3.37-3.37-6-7.36-7.91-11.99-1.9-4.62-2.86-9.69-2.86-15.2s.95-10.57,2.86-15.2c1.9-4.62,4.54-8.62,7.91-11.98,3.37-3.37,7.34-6,11.93-7.91,4.59-1.9,9.57-2.86,14.94-2.86,4.49,0,8.98.88,13.46,2.65,4.49,1.77,8.33,4.69,11.53,8.77l-6.43,4.79c-.75-1.16-1.77-2.31-3.06-3.47-1.29-1.15-2.77-2.18-4.44-3.06-1.67-.88-3.45-1.6-5.35-2.14-1.9-.54-3.81-.82-5.71-.82-4.62,0-8.77.85-12.44,2.55-3.67,1.7-6.78,3.98-9.33,6.83-2.55,2.86-4.51,6.17-5.86,9.94-1.36,3.77-2.04,7.74-2.04,11.88s.68,8.11,2.04,11.88c1.36,3.77,3.31,7.09,5.86,9.94,2.55,2.86,5.66,5.14,9.33,6.83,3.67,1.7,7.82,2.55,12.44,2.55,1.9,0,3.79-.17,5.66-.51,1.87-.34,3.71-.92,5.51-1.73,1.8-.82,3.5-1.92,5.1-3.32,1.6-1.39,3.08-3.14,4.44-5.25l6.02,4.28Z"/><path class="cls-3" d="m435.58,250.73h-8.57l31.42-72.22h7.14l31.42,72.22h-8.57l-7.96-18.97h-36.92l-7.96,18.97Zm10.71-25.7h31.31l-15.61-37.94-15.71,37.94Z"/><path class="cls-3" d="m514.93,178.51h23.97c4.49,0,8.99.75,13.52,2.24,4.52,1.5,8.6,3.76,12.24,6.78,3.64,3.03,6.58,6.8,8.82,11.32,2.24,4.52,3.37,9.78,3.37,15.76s-1.12,11.32-3.37,15.81c-2.24,4.49-5.19,8.25-8.82,11.27-3.64,3.03-7.72,5.29-12.24,6.78-4.52,1.5-9.03,2.24-13.52,2.24h-23.97v-72.22Zm7.34,65.48h14.28c5.51,0,10.29-.83,14.33-2.5,4.04-1.67,7.41-3.88,10.1-6.63,2.68-2.75,4.67-5.88,5.97-9.38,1.29-3.5,1.94-7.12,1.94-10.86s-.65-7.36-1.94-10.86c-1.29-3.5-3.28-6.63-5.97-9.38-2.69-2.75-6.05-4.96-10.1-6.63-4.05-1.67-8.82-2.5-14.33-2.5h-14.28v58.75Z"/><path class="cls-3" d="m608.06,244h38.66v6.73h-46v-72.22h44.78v6.73h-37.43v24.58h34.99v6.73h-34.99v27.44Z"/><path class="cls-3" d="m705.98,237.27l24.38-58.75h11.22v72.22h-7.34v-62.42h-.2l-26.11,62.42h-3.88l-26.11-62.42h-.2v62.42h-7.34v-72.22h11.22l24.38,58.75Z"/><path class="cls-3" d="m793.49,250.73h-7.34v-31.11l-27.03-41.1h9.18l21.52,34.07,21.52-34.07h9.18l-27.03,41.1v31.11Z"/></g></g></svg>